<mxfile host="app.diagrams.net" modified="2022-11-14T05:29:21.097Z" agent="5.0 (Windows NT 10.0; Win64; x64) AppleWebKit/537.36 (KHTML, like Gecko) Chrome/107.0.0.0 Safari/537.36" etag="K-3nk9HlvSi1bEmrY4GE" version="20.5.3" type="github">
  <diagram id="C5RBs43oDa-KdzZeNtuy" name="Page-1">
    <mxGraphModel dx="1422" dy="794" grid="1" gridSize="10" guides="1" tooltips="1" connect="1" arrows="1" fold="1" page="1" pageScale="1" pageWidth="827" pageHeight="1169" math="0" shadow="0">
      <root>
        <mxCell id="WIyWlLk6GJQsqaUBKTNV-0" />
        <mxCell id="WIyWlLk6GJQsqaUBKTNV-1" parent="WIyWlLk6GJQsqaUBKTNV-0" />
        <mxCell id="VQeY1ZyDB1w77uvYQ3KY-0" value="PaymentController" style="rounded=0;whiteSpace=wrap;html=1;" vertex="1" parent="WIyWlLk6GJQsqaUBKTNV-1">
          <mxGeometry x="20" y="40" width="120" height="60" as="geometry" />
        </mxCell>
        <mxCell id="VQeY1ZyDB1w77uvYQ3KY-1" value="&lt;span style=&quot;font-weight: normal;&quot;&gt;&lt;font style=&quot;font-size: 12px;&quot;&gt;/v3/payment/credit&lt;/font&gt;&lt;/span&gt;" style="text;strokeColor=none;fillColor=none;html=1;fontSize=24;fontStyle=1;verticalAlign=middle;align=center;" vertex="1" parent="WIyWlLk6GJQsqaUBKTNV-1">
          <mxGeometry x="30" y="90" width="100" height="40" as="geometry" />
        </mxCell>
        <mxCell id="VQeY1ZyDB1w77uvYQ3KY-2" value="" style="endArrow=classic;html=1;rounded=0;fontSize=12;" edge="1" parent="WIyWlLk6GJQsqaUBKTNV-1">
          <mxGeometry width="50" height="50" relative="1" as="geometry">
            <mxPoint x="140" y="70" as="sourcePoint" />
            <mxPoint x="180" y="70" as="targetPoint" />
          </mxGeometry>
        </mxCell>
        <mxCell id="VQeY1ZyDB1w77uvYQ3KY-3" value="LedgerTransactionService" style="rounded=0;whiteSpace=wrap;html=1;fontSize=12;" vertex="1" parent="WIyWlLk6GJQsqaUBKTNV-1">
          <mxGeometry x="180" y="40" width="150" height="60" as="geometry" />
        </mxCell>
        <mxCell id="VQeY1ZyDB1w77uvYQ3KY-4" value="&lt;span style=&quot;font-weight: normal;&quot;&gt;&lt;font style=&quot;font-size: 12px;&quot;&gt;payCard&lt;/font&gt;&lt;/span&gt;" style="text;strokeColor=none;fillColor=none;html=1;fontSize=24;fontStyle=1;verticalAlign=middle;align=center;" vertex="1" parent="WIyWlLk6GJQsqaUBKTNV-1">
          <mxGeometry x="205" y="90" width="100" height="40" as="geometry" />
        </mxCell>
        <mxCell id="VQeY1ZyDB1w77uvYQ3KY-6" value="가맹점 요청정보 체크" style="rounded=1;whiteSpace=wrap;html=1;fontSize=12;" vertex="1" parent="WIyWlLk6GJQsqaUBKTNV-1">
          <mxGeometry x="180" y="130" width="150" height="30" as="geometry" />
        </mxCell>
        <mxCell id="VQeY1ZyDB1w77uvYQ3KY-7" value="카드번호 전송" style="rounded=1;whiteSpace=wrap;html=1;fontSize=12;" vertex="1" parent="WIyWlLk6GJQsqaUBKTNV-1">
          <mxGeometry x="180" y="170" width="150" height="30" as="geometry" />
        </mxCell>
        <mxCell id="VQeY1ZyDB1w77uvYQ3KY-8" value="카드빈 SET" style="rounded=1;whiteSpace=wrap;html=1;fontSize=12;" vertex="1" parent="WIyWlLk6GJQsqaUBKTNV-1">
          <mxGeometry x="180" y="210" width="150" height="30" as="geometry" />
        </mxCell>
        <mxCell id="VQeY1ZyDB1w77uvYQ3KY-9" value="COUNTRY CHECK" style="rounded=1;whiteSpace=wrap;html=1;fontSize=12;" vertex="1" parent="WIyWlLk6GJQsqaUBKTNV-1">
          <mxGeometry x="180" y="250" width="150" height="30" as="geometry" />
        </mxCell>
        <mxCell id="VQeY1ZyDB1w77uvYQ3KY-10" value="Erompay3paymentDto" style="rounded=0;whiteSpace=wrap;html=1;fontSize=12;" vertex="1" parent="WIyWlLk6GJQsqaUBKTNV-1">
          <mxGeometry x="370" y="170" width="136" height="60" as="geometry" />
        </mxCell>
        <mxCell id="VQeY1ZyDB1w77uvYQ3KY-11" value="" style="endArrow=classic;html=1;rounded=0;fontSize=12;entryX=0;entryY=0.25;entryDx=0;entryDy=0;" edge="1" parent="WIyWlLk6GJQsqaUBKTNV-1" target="VQeY1ZyDB1w77uvYQ3KY-10">
          <mxGeometry width="50" height="50" relative="1" as="geometry">
            <mxPoint x="330" y="150" as="sourcePoint" />
            <mxPoint x="380" y="100" as="targetPoint" />
          </mxGeometry>
        </mxCell>
        <mxCell id="VQeY1ZyDB1w77uvYQ3KY-12" value="" style="endArrow=classic;html=1;rounded=0;fontSize=12;exitX=1;exitY=0.5;exitDx=0;exitDy=0;entryX=0;entryY=1;entryDx=0;entryDy=0;" edge="1" parent="WIyWlLk6GJQsqaUBKTNV-1" source="VQeY1ZyDB1w77uvYQ3KY-9" target="VQeY1ZyDB1w77uvYQ3KY-10">
          <mxGeometry width="50" height="50" relative="1" as="geometry">
            <mxPoint x="390" y="430" as="sourcePoint" />
            <mxPoint x="360" y="230" as="targetPoint" />
          </mxGeometry>
        </mxCell>
        <mxCell id="VQeY1ZyDB1w77uvYQ3KY-13" value="" style="endArrow=classic;html=1;rounded=0;fontSize=12;exitX=1;exitY=0.5;exitDx=0;exitDy=0;entryX=0;entryY=0.75;entryDx=0;entryDy=0;" edge="1" parent="WIyWlLk6GJQsqaUBKTNV-1" source="VQeY1ZyDB1w77uvYQ3KY-8" target="VQeY1ZyDB1w77uvYQ3KY-10">
          <mxGeometry width="50" height="50" relative="1" as="geometry">
            <mxPoint x="400" y="380" as="sourcePoint" />
            <mxPoint x="440" y="380" as="targetPoint" />
          </mxGeometry>
        </mxCell>
        <mxCell id="VQeY1ZyDB1w77uvYQ3KY-14" value="" style="endArrow=classic;html=1;rounded=0;fontSize=12;exitX=1;exitY=0.5;exitDx=0;exitDy=0;entryX=0;entryY=0.5;entryDx=0;entryDy=0;" edge="1" parent="WIyWlLk6GJQsqaUBKTNV-1" source="VQeY1ZyDB1w77uvYQ3KY-7" target="VQeY1ZyDB1w77uvYQ3KY-10">
          <mxGeometry width="50" height="50" relative="1" as="geometry">
            <mxPoint x="390" y="430" as="sourcePoint" />
            <mxPoint x="440" y="380" as="targetPoint" />
          </mxGeometry>
        </mxCell>
        <mxCell id="VQeY1ZyDB1w77uvYQ3KY-15" value="&lt;span style=&quot;font-weight: normal;&quot;&gt;&lt;font style=&quot;font-size: 12px;&quot;&gt;PaymentCardReq&lt;/font&gt;&lt;/span&gt;" style="text;strokeColor=none;fillColor=none;html=1;fontSize=24;fontStyle=1;verticalAlign=middle;align=center;" vertex="1" parent="WIyWlLk6GJQsqaUBKTNV-1">
          <mxGeometry x="388" y="220" width="100" height="40" as="geometry" />
        </mxCell>
        <mxCell id="VQeY1ZyDB1w77uvYQ3KY-16" value="가맹점 정보 세팅" style="rounded=1;whiteSpace=wrap;html=1;fontSize=12;" vertex="1" parent="WIyWlLk6GJQsqaUBKTNV-1">
          <mxGeometry x="180" y="290" width="150" height="30" as="geometry" />
        </mxCell>
        <mxCell id="VQeY1ZyDB1w77uvYQ3KY-17" value="가맹점 검색결과 검증" style="rounded=1;whiteSpace=wrap;html=1;fontSize=12;" vertex="1" parent="WIyWlLk6GJQsqaUBKTNV-1">
          <mxGeometry x="180" y="330" width="150" height="30" as="geometry" />
        </mxCell>
        <mxCell id="VQeY1ZyDB1w77uvYQ3KY-18" value="결제수단 조회" style="rounded=1;whiteSpace=wrap;html=1;fontSize=12;" vertex="1" parent="WIyWlLk6GJQsqaUBKTNV-1">
          <mxGeometry x="180" y="370" width="150" height="30" as="geometry" />
        </mxCell>
      </root>
    </mxGraphModel>
  </diagram>
</mxfile>
